<?xml version="1.0" standalone="no"?>
<!DOCTYPE svg PUBLIC "-//W3C//DTD SVG 20010904//EN"
 "http://www.w3.org/TR/2001/REC-SVG-20010904/DTD/svg10.dtd">
<svg version="1.0" xmlns="http://www.w3.org/2000/svg"
 width="200.000000pt" height="200.000000pt" viewBox="0 0 200.000000 200.000000"
 preserveAspectRatio="xMidYMid meet">

<g transform="translate(0.000000,200.000000) scale(0.100000,-0.100000)"
fill="#000000" stroke="none">
<path d="M0 1000 l0 -1000 1000 0 1000 0 0 1000 0 1000 -1000 0 -1000 0 0
-1000z m1155 118 c83 -144 163 -284 178 -312 l28 -51 -45 50 c-25 28 -69 78
-98 112 -73 84 -108 103 -196 103 -83 0 -116 19 -114 66 0 16 17 83 37 149 46
152 43 145 52 145 4 0 76 -118 158 -262z m-264 105 c-57 -193 -57 -208 0 -304
34 -59 38 -102 9 -122 -28 -19 -339 -131 -346 -124 -6 5 348 627 354 622 2 -2
-6 -34 -17 -72z m381 -443 c70 -80 128 -148 128 -152 0 -5 -183 -8 -407 -7
-290 0 -401 3 -383 11 14 5 96 36 183 68 160 59 196 81 224 135 9 17 27 45 40
63 20 27 31 33 56 30 27 -3 52 -26 159 -148z"/>
</g>
</svg>
